<?xml version="1.0" standalone="yes"?>
<svg xmlns="http://www.w3.org/2000/svg" width="209" height="211">
    <path style="fill:#558C89; stroke:none;" d="M0 0L0 211L209 211L209 0L0 0z"/>
    <path style="fill:#ECECEA; stroke:none;" d="M16 19C13.8554 30.3428 13.9112 44.4921 15.0833 56C15.3589 58.7057 16.5689 61.2892 16.6944 64C16.8932 68.2928 14 71.6842 14 76C14 80.1414 16.6839 83.0867 16.8889 87C17.0217 89.5355 15.2303 91.5299 15.0278 94.0278C14.6049 99.2427 16.1479 104.677 16 110C15.9089 113.279 14.5723 116.642 15.1111 119.917C15.6768 123.355 17.4068 125.256 16.5833 129C15.7842 132.634 11.8701 138.895 17 140C14.6808 145.035 16.0056 149.722 17 155C15.3648 154.455 15.5451 154.635 15 153C14.2211 154.769 14.0876 156.036 14 158C15.7968 158 15.5215 157.986 17 157C16.7037 160.628 15.2277 164.377 15.4329 168C15.6051 171.042 16.8042 173.92 17 177C16.4382 175.199 16.1759 173.878 16 172C14.7294 174.829 14.3917 177.916 14 181C15.7968 181 15.5215 180.986 17 180L17 184L15 183C15.4646 186.809 16.7043 190.392 18 194C23.4543 193.346 29.6145 192.19 34 196C42.2637 192.336 51.161 193.54 60 195C60 192.971 60.6653 192.537 63 193.167C66.9872 194.243 72.3832 196.272 76.6667 194.5C82.3123 192.164 87.9975 194 94 194C99.205 194 104.8 192.506 110 192C115.269 191.488 120.768 192.667 126 192.667C130.99 192.667 139.502 189.708 143 194C148.43 192.021 152.448 192.9 158 192.625C168.67 192.097 179.295 192 190 192C190.089 159.821 191.324 127.27 191.946 95C192.086 87.7323 190.976 80.3401 190.999 73C191.029 63.7883 190.13 54.1625 190.88 45C191.216 40.8931 193.549 36.1013 190 33C191.882 28.3319 190.141 24.8354 190 20C184.349 20 178.594 19.11 173 19.2593C164.751 19.4794 158.119 20.148 150 18C146.341 20.7288 142.331 19.1208 138 19.0147C129.937 18.8171 122.036 19.5217 114 19.3248C97.9625 18.932 82.006 20.0063 66 19.3704C52.4916 18.8336 38.6715 17.4458 25.1698 17.5178C22.1235 17.534 19.1431 18.9083 16 19z"/>
    <path style="fill:#558C89; stroke:none;" d="M27 17L28 18L27 17z"/>
    <path style="fill:#61ebd1; stroke:none;" d="M33 17C36.4324 18.4403 40.2998 18 44 18C40.5676 16.5597 36.7002 17 33 17z"/>
    <path style="fill:#a4f4e4; stroke:none;" d="M44 17C45.2483 17.6848 45.5485 17.7488 47 18C45.7516 17.3152 45.4516 17.2512 44 17z"/>
    <path style="fill:#5debcf; stroke:none;" d="M53 17C55.0521 17.8742 56.7472 17.9528 59 18C56.9479 17.1258 55.2528 17.0472 53 17z"/>
    <path style="fill:#7befd8; stroke:none;" d="M16 18C18.3316 18.9845 20.4567 18.9813 23 19C20.6684 18.0155 18.5433 18.0187 16 18z"/>
    <path style="fill:#e1fbf6; stroke:none;" d="M28 18C29.769 18.7789 31.0359 18.9124 33 19C31.231 18.2211 29.9641 18.0876 28 18z"/>
    <path style="fill:#d4faf2; stroke:none;" d="M37.6667 18.3333C37.2222 18.7778 38.2778 18.7222 38.3333 18.6667C38.7778 18.2222 37.7222 18.2778 37.6667 18.3333z"/>
    <path style="fill:#abf5e6; stroke:none;" d="M48 18C49.2483 18.6848 49.5485 18.7488 51 19C49.7516 18.3152 49.4516 18.2512 48 18z"/>
    <path style="fill:#9af2e1; stroke:none;" d="M60 18L61 19L60 18z"/>
    <path style="fill:#9cf3e2; stroke:none;" d="M71 18C72.2484 18.6848 72.5484 18.7488 74 19C72.7517 18.3152 72.4515 18.2512 71 18z"/>
    <path style="fill:#98f2e1; stroke:none;" d="M77.6667 18.3333C77.2222 18.7778 78.2778 18.7222 78.3333 18.6667C78.7778 18.2222 77.7222 18.2778 77.6667 18.3333z"/>
    <path style="fill:#d3faf2; stroke:none;" d="M85 20L88 19C86.2218 18.0446 85.9786 18.2338 85 20z"/>
    <path style="fill:#9cf3e2; stroke:none;" d="M92 18C93.2484 18.6848 93.5484 18.7488 95 19C93.7517 18.3152 93.4515 18.2512 92 18z"/>
    <path style="fill:#7befd8; stroke:none;" d="M99 18C101.332 18.9845 103.457 18.9813 106 19C103.668 18.0155 101.543 18.0187 99 18z"/>
    <path style="fill:#6cedd4; stroke:none;" d="M115 18C116.248 18.6848 116.548 18.7488 118 19C116.752 18.3152 116.451 18.2512 115 18z"/>
    <path style="fill:#bff7ec; stroke:none;" d="M126 18C128.613 19.0977 131.165 18.9928 134 19C131.387 17.9023 128.835 18.0072 126 18z"/>
    <path style="fill:#99f2e1; stroke:none;" d="M149 18C146.894 18.6438 145.205 18.9059 143 19C144.629 19.9385 150.259 21.0506 149 18z"/>
    <path style="fill:#a0f3e3; stroke:none;" d="M152 18L153 19L152 18z"/>
    <path style="fill:#bbf7eb; stroke:none;" d="M167 18L167 20L169 20L169 18L167 18z"/>
    <path style="fill:#87f0dc; stroke:none;" d="M169 18L169 20L171 20C170.455 18.3649 170.635 18.5451 169 18z"/>
    <path style="fill:#97f2e0; stroke:none;" d="M172 18C173.248 18.6848 173.549 18.7488 175 19C173.752 18.3152 173.452 18.2512 172 18z"/>
    <path style="fill:#87f0dc; stroke:none;" d="M15 19L15 22C15.6961 20.4463 15.6961 20.5537 15 19z"/>
    <path style="fill:#d7faf3; stroke:none;" d="M44.6667 19.3333C44.2223 19.7777 45.2777 19.7223 45.3333 19.6667C45.7778 19.2222 44.7222 19.2778 44.6667 19.3333z"/>
    <path style="fill:#7befd8; stroke:none;" d="M63 19C64.2484 19.6848 64.5484 19.7488 66 20C64.7517 19.3152 64.4515 19.2512 63 19z"/>
    <path style="fill:#99f2e1; stroke:none;" d="M68 19C69.2484 19.6848 69.5484 19.7488 71 20C69.7517 19.3152 69.4515 19.2512 68 19M79 19C81.0521 19.8742 82.7472 19.9528 85 20C82.9479 19.1258 81.2528 19.0472 79 19z"/>
    <path style="fill:#9cf3e2; stroke:none;" d="M90.6667 19.3333C90.2222 19.7778 91.2778 19.7222 91.3333 19.6667C91.7778 19.2222 90.7222 19.2778 90.6667 19.3333z"/>
    <path style="fill:#c2f7ed; stroke:none;" d="M108 19C109.506 19.683 110.315 19.8259 112 20C110.494 19.317 109.685 19.1741 108 19z"/>
    <path style="fill:#ddfbf5; stroke:none;" d="M116 19C119.163 20.3274 122.586 19.9996 126 20C122.837 18.6726 119.414 19.0004 116 19z"/>
    <path style="fill:#77eed7; stroke:none;" d="M154 19C157.959 20.6611 162.737 20 167 20C163.041 18.3389 158.263 19 154 19z"/>
    <path style="fill:#baf6eb; stroke:none;" d="M176 19C178.052 19.8743 179.747 19.9528 182 20C179.948 19.1257 178.253 19.0472 176 19z"/>
    <path style="fill:#77eed7; stroke:none;" d="M182 19C184.613 20.0977 187.165 19.9928 190 20C187.387 18.9023 184.836 19.0072 182 19z"/>
    <path style="fill:#95f2e0; stroke:none;" d="M190 20L190 27C191.059 24.4657 191.059 22.5343 190 20z"/>
    <path style="fill:#b6f6ea; stroke:none;" d="M14 26L14 36C15.3457 32.793 15.3457 29.207 14 26z"/>
    <path style="fill:#c2f7ed; stroke:none;" d="M190.333 31.6667C190.278 31.7222 190.222 32.7778 190.667 32.3333C190.722 32.2777 190.778 31.2223 190.333 31.6667z"/>
    <path style="fill:#c9f8ef; stroke:none;" d="M14 39L14 43C14.7102 41.2405 14.7102 40.7595 14 39z"/>
    <path style="fill:#a0f3e3; stroke:none;" d="M191 42L190 46C191.656 44.5957 191.751 44.0464 191 42z"/>
    <path style="fill:#d3faf2; stroke:none;" d="M15 44C14.0143 45.4785 14 45.2032 14 47C15.2892 45.5574 15.4009 45.7663 15 44z"/>
    <path style="fill:#6cedd4; stroke:none;" d="M191 46L191 51C191.83 48.9695 191.83 48.0305 191 46z"/>
    <path style="fill:#8af0dd; stroke:none;" d="M14 47L14 58C15.4309 54.59 15.4309 50.41 14 47z"/>
    <path style="fill:#defbf5; stroke:none;" d="M191 51L191 65C192.667 61.0279 192.667 54.9721 191 51z"/>
    <path style="fill:#95f2e0; stroke:none;" d="M14.3333 60.6667C14.2778 60.7222 14.2222 61.7778 14.6667 61.3333C14.7223 61.2777 14.7778 60.2222 14.3333 60.6667z"/>
    <path style="fill:#a6f4e5; stroke:none;" d="M16 62L17 63L16 62z"/>
    <path style="fill:#c2f7ed; stroke:none;" d="M16.3333 65.6667C16.2778 65.7222 16.2222 66.7778 16.6667 66.3333C16.7222 66.2778 16.7778 65.2222 16.3333 65.6667z"/>
    <path style="fill:#bbf7eb; stroke:none;" d="M191 65L191 73C192.161 70.2302 192.161 67.7699 191 65z"/>
    <path style="fill:#8af0dd; stroke:none;" d="M15 68L15 71C15.6961 69.4463 15.6961 69.5537 15 68z"/>
    <path style="fill:#5debcf; stroke:none;" d="M191 73L191 78C191.83 75.9695 191.83 75.0305 191 73z"/>
    <path style="fill:#8df1de; stroke:none;" d="M191.333 78.6667C191.278 78.7222 191.222 79.7778 191.667 79.3333C191.722 79.2778 191.778 78.2222 191.333 78.6667z"/>
    <path style="fill:#dcfbf5; stroke:none;" d="M112 80C114.052 80.8742 115.747 80.9528 118 81C115.948 80.1258 114.253 80.0472 112 80z"/>
    <path style="fill:#bcf7eb; stroke:none;" d="M190.333 80.6667C190.278 80.7222 190.222 81.7778 190.667 81.3333C190.722 81.2778 190.778 80.2222 190.333 80.6667z"/>
    <path style="fill:#9df3e2; stroke:none;" d="M14 81L15 82L14 81z"/>
    <path style="fill:#558C89; stroke:none;" d="M74 132L80 132L80 107C83.2554 115.502 84.8293 124.493 88 133C95.278 130.797 97.3172 115.858 98 109L100 109L100 132L105 132L105 95C105 92.1285 106.384 83.9099 103.416 82.1759C99.8268 80.0792 98.4623 86.9857 97.99 89C95.7028 98.7545 92.0473 108.207 90 118C86.3287 109.467 84.9467 99.8592 82.1142 91C81.436 88.8788 80.4818 82.4368 77.8341 81.9213C73.8573 81.147 75 90.9732 75 93C75 106.088 74.1078 118.976 74 132z"/>
    <path style="fill:#a0f3e3; stroke:none;" d="M100 81L101 82L100 81z"/>
    <path style="fill:#9cf3e2; stroke:none;" d="M104 81L105 82L104 81z"/>
    <path style="fill:#91f1df; stroke:none;" d="M110 81L111 82L110 81z"/>
    <path style="fill:#558C89; stroke:none;" d="M111.318 82.0278C107.42 84.6289 109 92.9889 109 97L109 120C109 122.883 108.292 127.016 109.603 129.682C111.72 133.984 122.75 132.371 125.956 130.258C134.411 124.684 131.001 107.762 131 99C131 95.4232 131.497 91.2999 129.821 88.0046C126.983 82.4266 117.111 78.162 111.318 82.0278z"/>
    <path style="fill:#d8faf3; stroke:none;" d="M122.667 81.3333C122.222 81.7778 123.278 81.7222 123.333 81.6667C123.778 81.2223 122.722 81.2777 122.667 81.3333z"/>
    <path style="fill:#c0f7ec; stroke:none;" d="M15 82L15 86C16.084 84.1375 16.0732 83.8825 15 82z"/>
    <path style="fill:#a7f4e5; stroke:none;" d="M74 82L75 83L74 82z"/>
    <path style="fill:#82efda; stroke:none;" d="M109 82L110 83L109 82z"/>
    <path style="fill:#d9faf4; stroke:none;" d="M191 82L191 85C191.696 83.4463 191.696 83.5537 191 82z"/>
    <path style="fill:#56eacd; stroke:none;" d="M74 83L74 108C76.4129 102.25 76.4129 88.7503 74 83z"/>
    <path style="fill:#bef7ec; stroke:none;" d="M105 83L105 121C106.441 117.565 106 113.702 106 110C106 101.993 108.105 90.3995 105 83z"/>
    <path style="fill:#9df3e2; stroke:none;" d="M126 83L127 84L126 83z"/>
    <path style="fill:#d9faf4; stroke:none;" d="M108 84L108 96C109.512 92.3957 109.512 87.6043 108 84z"/>
    <path style="fill:#82efda; stroke:none;" d="M127 84L128 85L127 84z"/>
    <path style="fill:#6aecd3; stroke:none;" d="M16 85L16 90C16.8299 87.9695 16.8299 87.0305 16 85z"/>
    <path style="fill:#69ecd3; stroke:none;" d="M80.3333 85.6667C80.2778 85.7222 80.2223 86.7778 80.6667 86.3333C80.7222 86.2778 80.7778 85.2222 80.3333 85.6667z"/>
    <path style="fill:#75eed7; stroke:none;" d="M98.3333 85.6667C98.2778 85.7222 98.2223 86.7777 98.6667 86.3333C98.7222 86.2778 98.7778 85.2222 98.3333 85.6667z"/>
    <path style="fill:#95f2e0; stroke:none;" d="M128 85L129 86L128 85z"/>
    <path style="fill:#7fefd9; stroke:none;" d="M191 85L191 90C191.83 87.9695 191.83 87.0305 191 85z"/>
    <path style="fill:#7befd8; stroke:none;" d="M116 86C117.248 86.6848 117.548 86.7488 119 87C117.752 86.3152 117.452 86.2512 116 86z"/>
    <path style="fill:#ECECEA; stroke:none;" d="M115 87L115 127C117.879 126.455 122.035 126.377 123.821 123.683C125.418 121.273 124.995 117.74 125 115L125 98C124.994 95.1537 125.368 91.6596 123.397 89.3179C121.304 86.8316 117.938 87.0347 115 87z"/>
    <path style="fill:#7defd9; stroke:none;" d="M81.3333 88.6667C81.2778 88.7222 81.2222 89.7778 81.6667 89.3333C81.7222 89.2778 81.7778 88.2222 81.3333 88.6667z"/>
    <path style="fill:#5eebd0; stroke:none;" d="M114 88L114 96C115.161 93.2301 115.161 90.7698 114 88z"/>
    <path style="fill:#b5f6e9; stroke:none;" d="M130 88L131 89L130 88z"/>
    <path style="fill:#adf5e7; stroke:none;" d="M97 89L97 92C97.6961 90.4463 97.6961 90.5537 97 89z"/>
    <path style="fill:#bef7ec; stroke:none;" d="M15.6667 90.3333C15.2222 90.7778 16.2778 90.7222 16.3333 90.6667C16.7777 90.2223 15.7222 90.2778 15.6667 90.3333z"/>
    <path style="fill:#b6f6e9; stroke:none;" d="M14 91L14 97C14.9511 94.7147 14.9511 93.2853 14 91z"/>
    <path style="fill:#c3f8ed; stroke:none;" d="M131 91L131 95C131.71 93.2405 131.71 92.7595 131 91z"/>
    <path style="fill:#aef5e7; stroke:none;" d="M96 94L97 95L96 94z"/>
    <path style="fill:#67ecd2; stroke:none;" d="M83.3333 95.6667C83.2778 95.7222 83.2222 96.7778 83.6667 96.3333C83.7222 96.2778 83.7778 95.2222 83.3333 95.6667z"/>
    <path style="fill:#73eed6; stroke:none;" d="M125 95L125 104C126.256 101.006 126.256 97.9941 125 95z"/>
    <path style="fill:#93f2df; stroke:none;" d="M131 95L131 122C133.541 115.945 133.541 101.055 131 95z"/>
    <path style="fill:#c0f7ec; stroke:none;" d="M108 96L108 105C109.256 102.006 109.256 98.9941 108 96z"/>
    <path style="fill:#8ff1de; stroke:none;" d="M114 96L114 105C115.256 102.006 115.256 98.9941 114 96z"/>
    <path style="fill:#61ebd0; stroke:none;" d="M95.3333 97.6667C95.2778 97.7222 95.2222 98.7778 95.6667 98.3333C95.7222 98.2778 95.7778 97.2222 95.3333 97.6667z"/>
    <path style="fill:#7aeed8; stroke:none;" d="M84.3333 98.6667C84.2778 98.7222 84.2222 99.7778 84.6667 99.3333C84.7222 99.2778 84.7778 98.2222 84.3333 98.6667z"/>
    <path style="fill:#6eedd4; stroke:none;" d="M15 99L15 107C16.1614 104.23 16.1614 101.77 15 99z"/>
    <path style="fill:#bcf7eb; stroke:none;" d="M191 99L191 115C192.812 110.681 192.812 103.319 191 99z"/>
    <path style="fill:#77eed7; stroke:none;" d="M94.3333 100.667C94.2778 100.722 94.2222 101.778 94.6667 101.333C94.7222 101.278 94.7778 100.222 94.3333 100.667z"/>
    <path style="fill:#7befd8; stroke:none;" d="M93.3333 104.667C93.2778 104.722 93.2222 105.778 93.6667 105.333C93.7222 105.278 93.7778 104.222 93.3333 104.667z"/>
    <path style="fill:#8bf1dd; stroke:none;" d="M125 104L125 118C126.667 114.028 126.667 107.972 125 104z"/>
    <path style="fill:#74eed6; stroke:none;" d="M86.3333 105.667C86.2778 105.722 86.2222 106.778 86.6667 106.333C86.7222 106.278 86.7778 105.222 86.3333 105.667z"/>
    <path style="fill:#5bebcf; stroke:none;" d="M114 105L114 124C116.02 119.187 116.02 109.813 114 105z"/>
    <path style="fill:#b3f5e9; stroke:none;" d="M15 107L15 110C15.6961 108.446 15.6961 108.554 15 107z"/>
    <path style="fill:#9ef3e3; stroke:none;" d="M80.3333 107.667C80.2778 107.722 80.2222 108.778 80.6667 108.333C80.7222 108.278 80.7778 107.222 80.3333 107.667z"/>
    <path style="fill:#90f1de; stroke:none;" d="M74.3333 108.667C74.2778 108.722 74.2222 109.778 74.6667 109.333C74.7222 109.278 74.7778 108.222 74.3333 108.667z"/>
    <path style="fill:#6aecd3; stroke:none;" d="M92.3333 108.667C92.2778 108.722 92.2223 109.778 92.6667 109.333C92.7222 109.278 92.7778 108.222 92.3333 108.667z"/>
    <path style="fill:#d0f9f1; stroke:none;" d="M80 109L80 122C81.5699 118.26 82.0282 112.551 80 109z"/>
    <path style="fill:#9cf3e2; stroke:none;" d="M87.3333 109.667C87.2778 109.722 87.2222 110.778 87.6667 110.333C87.7222 110.278 87.7778 109.222 87.3333 109.667M99 109L99 131C101.219 125.713 101.219 114.287 99 109z"/>
    <path style="fill:#86f0db; stroke:none;" d="M14 110C14.5451 111.635 14.3648 111.455 16 112L16 110L14 110z"/>
    <path style="fill:#acf5e7; stroke:none;" d="M91 111L92 112L91 111z"/>
    <path style="fill:#aff5e8; stroke:none;" d="M14 113L14 122C15.2561 119.006 15.2561 115.994 14 113z"/>
    <path style="fill:#75eed7; stroke:none;" d="M88.3333 113.667C88.2778 113.722 88.2222 114.778 88.6667 114.333C88.7222 114.278 88.7778 113.222 88.3333 113.667z"/>
    <path style="fill:#86f0dc; stroke:none;" d="M90.3333 114.667C90.2778 114.722 90.2222 115.778 90.6667 115.333C90.7222 115.278 90.7778 114.222 90.3333 114.667z"/>
    <path style="fill:#9bf3e2; stroke:none;" d="M74 115L74 123C75.1614 120.23 75.1614 117.77 74 115z"/>
    <path style="fill:#a3f4e4; stroke:none;" d="M96 115L96 118C96.6961 116.446 96.6961 116.554 96 115z"/>
    <path style="fill:#a0f3e3; stroke:none;" d="M191 115L191 121C191.951 118.715 191.951 117.285 191 115z"/>
    <path style="fill:#cff9f1; stroke:none;" d="M83.3333 117.667C83.2778 117.722 83.2222 118.778 83.6667 118.333C83.7222 118.278 83.7778 117.222 83.3333 117.667z"/>
    <path style="fill:#8df1de; stroke:none;" d="M89 117L90 118L89 117z"/>
    <path style="fill:#60ebd0; stroke:none;" d="M125.333 118.667C125.278 118.722 125.222 119.778 125.667 119.333C125.722 119.278 125.778 118.222 125.333 118.667z"/>
    <path style="fill:#86f0db; stroke:none;" d="M84 120L84 123C84.6961 121.446 84.6961 121.554 84 120z"/>
    <path style="fill:#9ff3e3; stroke:none;" d="M105 121L105 125C105.71 123.241 105.71 122.759 105 121z"/>
    <path style="fill:#bef7ec; stroke:none;" d="M191 121L191 130C192.256 127.006 192.256 123.994 191 121z"/>
    <path style="fill:#c2f7ed; stroke:none;" d="M15.6667 122.333C15.2222 122.778 16.2778 122.722 16.3333 122.667C16.7778 122.222 15.7222 122.278 15.6667 122.333z"/>
    <path style="fill:#aef5e7; stroke:none;" d="M80 122L80 131C81.2561 128.006 81.2561 124.994 80 122z"/>
    <path style="fill:#76eed7; stroke:none;" d="M16 123L16 126C16.6961 124.446 16.6961 124.554 16 123z"/>
    <path style="fill:#64ecd1; stroke:none;" d="M74.3333 123.667C74.2778 123.722 74.2222 124.778 74.6667 124.333C74.7222 124.278 74.7778 123.222 74.3333 123.667z"/>
    <path style="fill:#c6f8ee; stroke:none;" d="M94.3333 123.667C94.2778 123.722 94.2222 124.778 94.6667 124.333C94.7222 124.278 94.7778 123.222 94.3333 123.667z"/>
    <path style="fill:#adf5e7; stroke:none;" d="M124 123L125 124L124 123z"/>
    <path style="fill:#b6f6ea; stroke:none;" d="M85.3333 125.667C85.2778 125.722 85.2222 126.778 85.6667 126.333C85.7222 126.278 85.7778 125.222 85.3333 125.667z"/>
    <path style="fill:#75eed7; stroke:none;" d="M105 125L105 131C105.951 128.715 105.951 127.285 105 125z"/>
    <path style="fill:#b2f5e8; stroke:none;" d="M108 125L108 130C108.83 127.97 108.83 127.03 108 125z"/>
    <path style="fill:#abf5e6; stroke:none;" d="M130 125L131 126L130 125z"/>
    <path style="fill:#ddfbf5; stroke:none;" d="M117 126C118.506 126.683 119.315 126.826 121 127C119.494 126.317 118.685 126.174 117 126z"/>
    <path style="fill:#b5f6e9; stroke:none;" d="M93.3333 127.667C93.2778 127.722 93.2222 128.778 93.6667 128.333C93.7222 128.278 93.7778 127.222 93.3333 127.667z"/>
    <path style="fill:#76eed7; stroke:none;" d="M191 130L191 152C193.219 146.713 193.219 135.287 191 130z"/>
    <path style="fill:#86f0dc; stroke:none;" d="M15.3333 131.667C15.2778 131.722 15.2222 132.778 15.6667 132.333C15.7222 132.278 15.7778 131.222 15.3333 131.667z"/>
    <path style="fill:#8df1dd; stroke:none;" d="M87 131L88 132L87 131z"/>
    <path style="fill:#77eed7; stroke:none;" d="M75 132C76.506 132.683 77.3148 132.826 79 133C77.4939 132.317 76.6852 132.174 75 132z"/>
    <path style="fill:#68ecd3; stroke:none;" d="M101 132C102.248 132.685 102.548 132.749 104 133C102.752 132.315 102.452 132.251 101 132z"/>
    <path style="fill:#76eed7; stroke:none;" d="M111 132C113.332 132.985 115.457 132.981 118 133C115.668 132.015 113.543 132.019 111 132z"/>
    <path style="fill:#95f2e0; stroke:none;" d="M118 132C119.506 132.683 120.315 132.826 122 133C120.494 132.317 119.685 132.174 118 132z"/>
    <path style="fill:#76eed7; stroke:none;" d="M14.3333 135.667C14.2778 135.722 14.2222 136.778 14.6667 136.333C14.7222 136.278 14.7778 135.222 14.3333 135.667z"/>
    <path style="fill:#5eebd0; stroke:none;" d="M14 140C15.2484 140.685 15.5484 140.749 17 141C15.7517 140.315 15.4516 140.251 14 140z"/>
    <path style="fill:#89f0dc; stroke:none;" d="M15 142L16 143L15 142z"/>
    <path style="fill:#92f1df; stroke:none;" d="M14 143L14 149C15.3401 146.65 15.2823 145.389 14 143z"/>
    <path style="fill:#4ae9ca; stroke:none;" d="M15.3333 147.667C15.2778 147.722 15.2222 148.778 15.6667 148.333C15.7222 148.278 15.7778 147.222 15.3333 147.667z"/>
    <path style="fill:#90f1de; stroke:none;" d="M15 149L15 154C15.8299 151.97 15.8299 151.03 15 149z"/>
    <path style="fill:#d5faf3; stroke:none;" d="M16 152L15 155C16.7662 154.021 16.9555 153.778 16 152z"/>
    <path style="fill:#55eacd; stroke:none;" d="M191 152L191 164C192.512 160.396 192.512 155.604 191 152z"/>
    <path style="fill:#a6f4e5; stroke:none;" d="M16 157C14.7035 158.594 14.4646 159.018 14 161C16.0035 159.753 16.8227 159.263 16 157z"/>
    <path style="fill:#d8faf4; stroke:none;" d="M15 160L14 164C15.8698 162.771 16.2235 162.132 17 160L15 160z"/>
    <path style="fill:#96f2e0; stroke:none;" d="M14 164C14.5451 165.635 14.3648 165.455 16 166L16 164L14 164z"/>
    <path style="fill:#cdf9f0; stroke:none;" d="M16.3333 166.667C16.2778 166.722 16.2222 167.778 16.6667 167.333C16.7222 167.278 16.7778 166.222 16.3333 166.667z"/>
    <path style="fill:#d9faf4; stroke:none;" d="M190 168L190 175C191.059 172.466 191.059 170.534 190 168z"/>
    <path style="fill:#d4faf2; stroke:none;" d="M15 171L16 177C17.0395 174.471 17.0932 172.824 15 171z"/>
    <path style="fill:#b6f6ea; stroke:none;" d="M14 172L14 178C14.9511 175.715 14.9511 174.285 14 172z"/>
    <path style="fill:#d1f9f2; stroke:none;" d="M16 180C15.5983 181.943 15.5983 182.057 16 184C16.7102 182.241 16.7102 181.759 16 180z"/>
    <path style="fill:#96f2e0; stroke:none;" d="M14.3333 183.667C14.2778 183.722 14.2222 184.778 14.6667 184.333C14.7222 184.278 14.7778 183.222 14.3333 183.667z"/>
    <path style="fill:#99f2e1; stroke:none;" d="M190 183L190 192C191.256 189.006 191.256 185.994 190 183z"/>
    <path style="fill:#67ecd2; stroke:none;" d="M14 185L14 188C14.6961 186.446 14.6961 186.554 14 185z"/>
    <path style="fill:#aff5e8; stroke:none;" d="M15 187L16 188L15 187z"/>
    <path style="fill:#b5f6e9; stroke:none;" d="M16 188C16.077 190.645 15.9966 192.266 18 194C17.4394 191.898 16.9509 189.941 16 188z"/>
    <path style="fill:#a7f4e5; stroke:none;" d="M107 192L111 195C112.856 193.952 113.944 193.487 116 193C113.11 191.787 110.126 192.002 107 192M118 192C120.588 193.378 123.08 193.761 126 194C123.44 192.058 121.192 192.035 118 192M127 192C128.769 192.779 130.036 192.912 132 193C130.231 192.221 128.964 192.088 127 192z"/>
    <path style="fill:#ebfcf9; stroke:none;" d="M132 192C135.432 193.44 139.3 193 143 193C139.568 191.56 135.7 192 132 192z"/>
    <path style="fill:#62ebd1; stroke:none;" d="M144 193C147.033 194.139 149.483 193.707 152 196L155 193C151.393 191.487 147.741 192.109 144 193M159 192C167.367 195.511 180.924 193 190 193C181.633 189.489 168.076 192 159 192z"/>
    <path style="fill:#fbfffe; stroke:none;" d="M14.3333 193.667C14.2778 193.722 14.2222 194.778 14.6667 194.333C14.7222 194.278 14.7778 193.222 14.3333 193.667z"/>
    <path style="fill:#cef9f1; stroke:none;" d="M19 193C20.2484 193.685 20.5484 193.749 22 194C20.7516 193.315 20.4516 193.251 19 193z"/>
    <path style="fill:#caf8ef; stroke:none;" d="M25.6667 193.333C25.2222 193.778 26.2778 193.722 26.3333 193.667C26.7778 193.222 25.7222 193.278 25.6667 193.333z"/>
    <path style="fill:#89f0dc; stroke:none;" d="M26 196C27.8042 195.445 29.1272 195.166 31 195C28.9535 192.739 27.5142 193.64 26 196z"/>
    <path style="fill:#adf5e7; stroke:none;" d="M43 193C44.5061 193.683 45.3148 193.826 47 194C45.494 193.317 44.6852 193.174 43 193z"/>
    <path style="fill:#abf5e6; stroke:none;" d="M77 193C78.769 193.779 80.0359 193.912 82 194C80.231 193.221 78.9641 193.088 77 193z"/>
    <path style="fill:#66ecd2; stroke:none;" d="M82 193C83.2484 193.685 83.5484 193.749 85 194C83.7516 193.315 83.4516 193.251 82 193z"/>
    <path style="fill:#8df1de; stroke:none;" d="M88 193C89.2484 193.685 89.5484 193.749 91 194C89.7517 193.315 89.4516 193.251 88 193z"/>
    <path style="fill:#d2f9f2; stroke:none;" d="M90 194C91.506 194.683 92.3148 194.826 94 195C92.2654 193.95 92.0685 193.954 90 194z"/>
    <path style="fill:#b6f6ea; stroke:none;" d="M96 193L95 195L97 195C97 193.147 97.2997 193.65 96 193z"/>
    <path style="fill:#adf5e7; stroke:none;" d="M102 193C103.248 193.685 103.548 193.749 105 194C103.752 193.315 103.452 193.251 102 193z"/>
    <path style="fill:#c6f8ee; stroke:none;" d="M142 193C140.521 193.986 140.797 194 139 194C140.522 194.855 142.945 195.288 142 193z"/>
    <path style="fill:#abf5e6; stroke:none;" d="M149 193C150.223 194.195 150.42 194.316 152 195C150.777 193.805 150.58 193.684 149 193z"/>
    <path style="fill:#65ecd2; stroke:none;" d="M156.667 193.333C156.222 193.778 157.278 193.722 157.333 193.667C157.778 193.222 156.722 193.278 156.667 193.333z"/>
    <path style="fill:#85f0db; stroke:none;" d="M22.6667 194.333C22.2222 194.778 23.2778 194.722 23.3333 194.667C23.7778 194.222 22.7222 194.278 22.6667 194.333z"/>
    <path style="fill:#d1f9f2; stroke:none;" d="M31 194C32.2483 194.685 32.5484 194.749 34 195C32.7516 194.315 32.4516 194.251 31 194z"/>
    <path style="fill:#a7f4e5; stroke:none;" d="M38 196C39.58 195.316 39.7772 195.195 41 194C38.9076 194.406 38.9802 194.217 38 196z"/>
    <path style="fill:#aff5e7; stroke:none;" d="M48.6667 194.333C48.2222 194.778 49.2778 194.722 49.3333 194.667C49.7778 194.222 48.7222 194.278 48.6667 194.333z"/>
    <path style="fill:#a7f4e5; stroke:none;" d="M53 194L54 195L53 194z"/>
    <path style="fill:#a4f4e4; stroke:none;" d="M57 194L58 195L57 194z"/>
    <path style="fill:#65ecd2; stroke:none;" d="M70 196C71.58 195.316 71.7772 195.195 73 194C70.9076 194.406 70.9802 194.217 70 196z"/>
    <path style="fill:#eefdfa; stroke:none;" d="M111 194L112 195L111 194z"/>
    <path style="fill:#96f2e0; stroke:none;" d="M114 194L115 195L114 194z"/>
    <path style="fill:#fdfffe; stroke:none;" d="M137.667 194.333C137.222 194.778 138.278 194.722 138.333 194.667C138.778 194.222 137.722 194.278 137.667 194.333z"/>
    <path style="fill:#80efda; stroke:none;" d="M163 194L164 195L163 194z"/>
    <path style="fill:#ccf9f0; stroke:none;" d="M163 196C164.58 195.316 164.777 195.195 166 194C164.42 194.684 164.223 194.805 163 196z"/>
    <path style="fill:#73eed6; stroke:none;" d="M14 195C15.506 195.683 16.3148 195.826 18 196C16.494 195.317 15.6852 195.174 14 195z"/>
    <path style="fill:#85f0db; stroke:none;" d="M50.6667 195.333C50.2222 195.778 51.2778 195.722 51.3333 195.667C51.7778 195.222 50.7222 195.278 50.6667 195.333z"/>
    <path style="fill:#91f1df; stroke:none;" d="M64 195C66.0521 195.874 67.7472 195.953 70 196C67.9479 195.126 66.2528 195.047 64 195z"/>
    <path style="fill:#b7f6ea; stroke:none;" d="M73 195C74.2484 195.685 74.5484 195.749 76 196C74.7516 195.315 74.4516 195.251 73 195z"/>
    <path style="fill:#7fefda; stroke:none;" d="M108 195L109 196L108 195z"/>
    <path style="fill:#e8fcf8; stroke:none;" d="M153 195L154 196L153 195z"/>
    <path style="fill:#81efda; stroke:none;" d="M154 195L153 197L155 197C155 195.147 155.3 195.65 154 195z"/>
    <path style="fill:#61ebd1; stroke:none;" d="M86.6667 196.333C86.2222 196.778 87.2778 196.722 87.3333 196.667C87.7778 196.222 86.7222 196.278 86.6667 196.333z"/>
    <path style="fill:#88f0dc; stroke:none;" d="M163.667 196.333C163.222 196.778 164.278 196.722 164.333 196.667C164.778 196.222 163.722 196.278 163.667 196.333z"/>
</svg>
